<svg width="25" height="25" viewBox="0 0 25 25" xmlns="http://www.w3.org/2000/svg"><title>Codeopen_Color</title><g fill="none" fill-rule="evenodd"><path d="M0 12.5C0 5.596 5.596 0 12.5 0S25 5.596 25 12.5 19.404 25 12.5 25 0 19.404 0 12.5z" fill="#FFF"/><path d="M19.162 10.668l-.005-.024a.236.236 0 0 0-.01-.046l-.008-.027a.681.681 0 0 0-.027-.068.287.287 0 0 0-.019-.037l-.016-.025a.39.39 0 0 0-.042-.058.495.495 0 0 0-.028-.03l-.022-.022a.92.92 0 0 0-.031-.026l-.025-.02-.01-.006-5.903-3.936a.555.555 0 0 0-.616 0L6.497 10.28l-.009.007-.025.019a.499.499 0 0 0-.031.026l-.023.022a.387.387 0 0 0-.046.054.5.5 0 0 0-.059.096l-.012.027a.481.481 0 0 0-.014.04l-.009.028-.01.046c0 .008-.003.016-.004.024a.53.53 0 0 0-.005.073v3.935a.55.55 0 0 0 .005.073l.005.024a.591.591 0 0 0 .01.046l.008.027.014.04.012.027a.806.806 0 0 0 .02.038l.016.025a.49.49 0 0 0 .123.136l.025.019.01.007 5.902 3.935a.555.555 0 0 0 .616 0l5.904-3.935.009-.007.025-.019a.92.92 0 0 0 .031-.027c.008-.006.015-.014.022-.021a.488.488 0 0 0 .07-.088l.016-.025a.403.403 0 0 0 .02-.038l.012-.026.014-.041.009-.027a.591.591 0 0 0 .01-.046c0-.008.003-.017.004-.024a.55.55 0 0 0 .005-.073v-3.935a.53.53 0 0 0-.005-.073zm-5.899-2.826l4.35 2.9-1.943 1.299-2.407-1.61V7.842zm-1.11 0v2.589l-2.406 1.61-1.943-1.3 4.35-2.899zM7.36 11.78l1.389.928-1.389.93V11.78zm4.793 5.794l-4.349-2.899 1.943-1.299 2.406 1.61v2.588zm.555-3.553l-1.963-1.313 1.963-1.313 1.964 1.313-1.964 1.313zm.555 3.553v-2.588l2.407-1.61 1.942 1.3-4.349 2.898zm4.794-3.937l-1.389-.929 1.389-.928v1.857z" fill="#0B0B0A"/></g></svg>