<?xml version="1.0" encoding="utf-8"?>
<!-- Generator: Adobe Illustrator 22.0.1, SVG Export Plug-In . SVG Version: 6.00 Build 0)  -->
<svg version="1.1" id="Слой_1" xmlns="http://www.w3.org/2000/svg" xmlns:xlink="http://www.w3.org/1999/xlink" x="0px" y="0px"
	 viewBox="0 0 386.9 356.3" style="enable-background:new 0 0 386.9 356.3;" xml:space="preserve">
<style type="text/css">
	.st0{fill-rule:evenodd;clip-rule:evenodd;fill:#74A8DC;}
	.st1{fill-rule:evenodd;clip-rule:evenodd;fill:#79B9C1;}
	.st2{fill-rule:evenodd;clip-rule:evenodd;fill:#DCDB5A;}
	.st3{fill-rule:evenodd;clip-rule:evenodd;fill:#CB5142;}
	.st4{fill-rule:evenodd;clip-rule:evenodd;fill:#EDC539;}
	.st5{fill-rule:evenodd;clip-rule:evenodd;fill:#913A91;}
</style>
<path class="st0" d="M190.2,291.2c-60,0-108.6-48.6-108.6-108.6c0-60,48.6-108.6,108.6-108.6c22.7,0,43.7,6.9,61.1,18.8l19.2-28.2
	c-65.1-44-153.8-26.8-198.1,38.4C28,168.1,44.8,256.6,109.8,300.6c51,34.5,118.5,32.2,167.4-5.7l-20.5-26.5
	C238.3,282.7,215.2,291.2,190.2,291.2z"/>
<path class="st1" d="M285.4,130.3l30-16.5c-10.8-19.8-26.2-36.6-44.8-49.2l-19.2,28.2C265.4,102.4,277.1,115.3,285.4,130.3z"/>
<path class="st2" d="M296.9,162.2l24.1-4.6c-0.5-2.8-1.1-5.5-1.8-8.2l-23.8,6.1C296,157.8,296.4,160,296.9,162.2z"/>
<path class="st3" d="M321,157.6l-24.1,4.6c1.3,6.6,1.9,13.4,1.9,20.4c0,10.5-1.5,20.7-4.3,30.3l23.6,6.8c3.4-11.8,5.3-24.2,5.3-37.1
	C323.3,174,322.5,165.7,321,157.6z"/>
<g>
	<g>
		<line class="st1" x1="285.4" y1="131.2" x2="315.4" y2="114.7"/>
	</g>
	<path class="st4" d="M307.7,120.1l-21.5,11.8c3.9,7.4,7,15.4,9.2,23.7l23.8-6.1C316.5,139.1,312.7,129.3,307.7,120.1z"/>
</g>
<path class="st5" d="M294.5,212.9c-6.3,21.7-19.1,40.5-36.3,54.3l15,19.4c21.2-16.9,37.1-40.2,44.8-66.9L294.5,212.9z"/>
</svg>
