<svg width="25" height="25" viewBox="0 0 25 25" xmlns="http://www.w3.org/2000/svg"><title>Github_Color</title><g fill="#161514" fill-rule="evenodd"><path d="M12.5 0C5.597 0 0 5.738 0 12.816c0 5.663 3.582 10.467 8.548 12.162.625.119.854-.278.854-.617 0-.305-.011-1.315-.017-2.386-3.477.776-4.21-1.512-4.21-1.512-.57-1.481-1.389-1.875-1.389-1.875-1.134-.796.086-.78.086-.78 1.255.091 1.916 1.321 1.916 1.321 1.115 1.96 2.924 1.393 3.637 1.066.113-.829.437-1.394.794-1.714-2.776-.324-5.695-1.423-5.695-6.334 0-1.4.488-2.543 1.288-3.44-.13-.323-.558-1.626.12-3.392 0 0 1.05-.344 3.44 1.314a11.704 11.704 0 0 1 3.128-.431c1.062.005 2.133.147 3.132.431 2.385-1.658 3.434-1.314 3.434-1.314.68 1.766.252 3.07.122 3.392.802.897 1.287 2.04 1.287 3.44 0 4.923-2.925 6.007-5.708 6.324.448.398.848 1.178.848 2.373 0 1.715-.015 3.095-.015 3.517 0 .341.225.741.859.615C21.423 23.28 25 18.477 25 12.816 25 5.738 19.403 0 12.5 0"/><path d="M4.838 18.352c-.033.075-.15.097-.257.046-.108-.049-.17-.15-.134-.225.032-.076.15-.098.258-.046.109.048.17.15.133.225m.504.598c-.071.067-.21.036-.305-.069-.098-.104-.117-.244-.044-.311.073-.066.209-.035.307.07.098.105.117.243.042.31m.494.71c-.092.06-.242.004-.335-.12-.091-.124-.091-.272.002-.332s.241-.006.335.117c.091.126.091.274-.002.335m.637.695c-.073.083-.23.06-.344-.052-.116-.11-.149-.266-.075-.348.074-.083.23-.06.346.052.115.11.15.267.073.348m.899.429c-.03.117-.17.17-.311.12-.142-.05-.234-.188-.205-.307.029-.118.17-.173.312-.12.141.051.234.188.204.307m1.021.059c.004.124-.116.226-.264.228-.15.004-.27-.096-.272-.217 0-.125.117-.226.267-.23.148-.003.27.097.27.22m.95-.172c.017.12-.086.244-.233.277-.145.032-.279-.043-.297-.162-.018-.124.087-.248.231-.28.148-.03.28.042.299.165"/></g></svg>